<svg width="24" height="28" viewBox="0 0 24 28" fill="none" xmlns="http://www.w3.org/2000/svg">
<path d="M11.98 27.5C12.06 26.9 12.13 26.3 12.21 25.7C12.28 25.19 12.35 24.69 12.41 24.18C12.42 24.07 12.45 24.04 12.55 24.1C13.25 24.51 13.95 24.92 14.65 25.33C14.67 25.34 14.68 25.36 14.71 25.39C14.3 25.71 13.89 26.03 13.49 26.34C13 26.73 12.51 27.11 12.01 27.5H11.97H11.98Z" fill="white"/>
<path d="M23.4699 11.95C23.4699 11.95 23.4899 11.95 23.4999 11.95V12.24C23.4999 12.24 23.4799 12.24 23.4699 12.24C23.3899 12.14 23.3899 12.04 23.4699 11.94V11.95Z" fill="white"/>
<path d="M20.42 8.9C20.2 8.81 19.98 8.73 19.75 8.74C19.69 8.74 19.68 8.72 19.68 8.67C19.68 8.63 19.68 8.59 19.68 8.54C19.68 6.3 19.68 4.06 19.68 1.82C19.68 1.42 19.52 1.26 19.13 1.26C15.35 1.26 11.56 1.26 7.77999 1.26C7.60999 1.26 7.57999 1.31 7.57999 1.47C7.57999 2.57 7.57999 3.67 7.57999 4.78C7.57999 5.56 7.06999 6.08 6.28999 6.08C4.99999 6.08 3.71999 6.08 2.42999 6.08C2.28999 6.08 2.24999 6.11 2.24999 6.26C2.24999 12.41 2.24999 18.56 2.24999 24.71C2.24999 25.06 2.42999 25.24 2.77999 25.24C5.57999 25.24 8.37999 25.24 11.18 25.24C11.36 25.24 11.39 25.29 11.35 25.45C11.32 25.59 11.3 25.74 11.29 25.88C11.29 25.97 11.25 26.02 11.16 26C11.12 26 11.09 26 11.05 26C8.27999 26 5.50999 26 2.73999 26C1.99999 26 1.48999 25.49 1.48999 24.75C1.48999 18.48 1.48999 12.21 1.48999 5.94C1.48999 5.79 1.52999 5.7 1.63999 5.6C3.51999 3.93 5.37999 2.28 7.23999 0.62C7.32999 0.54 7.42999 0.5 7.55999 0.5C11.45 0.5 15.33 0.5 19.22 0.5C19.89 0.5 20.43 1 20.43 1.68C20.43 4.06 20.43 6.45 20.43 8.83C20.43 8.85 20.43 8.86 20.42 8.89V8.9Z" fill="white" stroke="white" stroke-miterlimit="10"/>
<path d="M21.34 15.87C21.34 16 21.29 16.13 21.22 16.26C19.86 18.63 18.51 21.01 17.15 23.38C16.92 23.77 16.56 23.88 16.16 23.65C15.16 23.07 14.17 22.49 13.18 21.91C12.81 21.69 12.71 21.32 12.93 20.94C13.84 19.35 14.74 17.76 15.65 16.17C16.09 15.39 16.54 14.62 16.98 13.84C17.23 13.4 17.58 13.3 18.01 13.55C18.99 14.12 19.97 14.69 20.95 15.26C21.19 15.4 21.32 15.59 21.34 15.87Z" fill="white"/>
<path d="M23.4701 11.95V12.25C23.4701 12.34 23.4201 12.41 23.3801 12.48C23.0301 13.09 22.6801 13.7 22.3301 14.31C22.1001 14.71 21.7301 14.81 21.3301 14.58C20.3501 14.01 19.3601 13.43 18.3801 12.86C17.9801 12.63 17.8801 12.25 18.1101 11.85C18.4501 11.25 18.8001 10.64 19.1401 10.04C19.3701 9.63001 19.7501 9.53001 20.1601 9.77001C21.1401 10.34 22.1301 10.92 23.1101 11.49C23.2901 11.6 23.4301 11.73 23.4601 11.96L23.4701 11.95Z" fill="white"/>
<path d="M10.9601 10.11C9.09007 10.11 7.23007 10.11 5.36007 10.11C4.99007 10.11 4.77007 9.81001 4.89007 9.49001C4.95007 9.33001 5.06007 9.23001 5.23007 9.21001C5.31007 9.20001 5.38007 9.20001 5.46007 9.20001C9.13007 9.20001 12.7901 9.20001 16.4601 9.20001C16.5301 9.20001 16.6001 9.20001 16.6701 9.21001C16.9101 9.25001 17.0701 9.44001 17.0501 9.69001C17.0401 9.92001 16.8601 10.1 16.6201 10.11C16.5801 10.11 16.5401 10.11 16.4901 10.11C14.6401 10.11 12.7901 10.11 10.9501 10.11H10.9601Z" fill="white" stroke="white" stroke-miterlimit="10"/>
<path d="M10.88 12.57C12.7 12.57 14.52 12.57 16.33 12.57C16.5766 12.57 16.64 12.6733 16.52 12.88C16.43 13.03 16.34 13.18 16.26 13.33C16.21 13.44 16.13 13.47 16.01 13.47C14.24 13.47 12.47 13.47 10.7 13.47C8.90996 13.47 7.10996 13.47 5.31996 13.47C5.07996 13.47 4.89996 13.32 4.85996 13.1C4.81996 12.89 4.93996 12.67 5.13996 12.59C5.22996 12.55 5.32996 12.56 5.41996 12.56C7.23996 12.56 9.05996 12.56 10.87 12.56L10.88 12.57Z" fill="white" stroke="white" stroke-miterlimit="10"/>
<path d="M14.7565 15.9398C14.5001 16.4999 14.4601 16.5 14.3101 16.77C14.2801 16.82 14.2501 16.85 14.1801 16.85C14.1601 16.85 14.1301 16.85 14.1101 16.85C11.1901 16.85 8.27012 16.85 5.35012 16.85C5.06012 16.85 4.87012 16.68 4.87012 16.41C4.87012 16.14 5.06012 15.94 5.35012 15.94C8.49012 15.94 11.4905 15.9398 14.6605 15.9398L14.7565 15.9398Z" fill="white" stroke="white" stroke-miterlimit="10"/>
<path d="M20.4301 19.34V19.51C20.4301 21.23 20.4301 22.94 20.4301 24.66C20.4301 25.48 19.9401 25.98 19.1301 25.98C17.9301 25.98 16.7401 25.98 15.5401 25.98H15.3101C15.6601 25.71 15.9601 25.47 16.2601 25.24C16.3101 25.2 16.3801 25.22 16.4301 25.22C17.3301 25.22 18.2301 25.22 19.1301 25.22C19.4901 25.22 19.6701 25.05 19.6701 24.68C19.6701 23.37 19.6701 22.07 19.6701 20.76C19.6701 20.65 19.7001 20.55 19.7501 20.46C19.9701 20.09 20.1801 19.71 20.3901 19.34H20.4201H20.4301Z" fill="white" stroke="white" stroke-miterlimit="10"/>
<path d="M12.86 19.3C12.69 19.61 12.53 19.89 12.36 20.17C12.32 20.24 12.24 20.21 12.18 20.21C11 20.21 9.82 20.21 8.64 20.21C7.55 20.21 6.46 20.21 5.37 20.21C5.09 20.21 4.9 20.07 4.87 19.82C4.84 19.59 4.98 19.37 5.2 19.31C5.26 19.29 5.33 19.29 5.39 19.29C7.84 19.29 10.29 19.29 12.74 19.29H12.86V19.3Z" fill="white" stroke="white" stroke-miterlimit="10"/>
</svg>
